<svg xmlns="http://www.w3.org/2000/svg" fill-rule="evenodd" clip-rule="evenodd" width="227.429" height="213.571" shape-rendering="geometricPrecision" text-rendering="geometricPrecision"><rect id="backgroundrect" width="100%" height="100%" fill="none"/><defs><style>.fil0 {fill:white}</style></defs><g class="currentLayer"><title>Layer 1</title><g id="svg_1" class="selected" fill="#fff"><path class="fil0" d="M176.714 1.286h-127c-12 0-23 10-23 23v20c-8 0-19 1-19 13-3 0-6 2-6 6v32c0 3 3 6 6 6 1 11 11 12 19 12v73h12v14c0 12 24 12 24 0v-14h101v14c0 12 25 12 25 0v-14h11v-73c9 0 18-1 19-12h1c3 0 6-3 6-6v-32c0-4-3-6-6-6h-1c0-12-10-13-19-13v-20c0-13-10-23-23-23zm-120 117v-3c0-10 9-19 19-19s18 9 18 19v4h16v-78h-60c-6 0-12 6-12 12v54c0 7 6 12 12 12h7v-1zm57-109h47c12 0 12 17 0 17h-94c-12 0-12-17 0-17h47zm0 132h21c5 0 9 3 12 7h-66c3-4 7-7 12-7h21zm0 11h32c4 0 4 7 0 7h-64c-4 0-4-7 0-7h32zm33 12c-3 4-7 6-12 6h-42c-5 0-9-2-12-6h66zm-94-20c6 0 12 5 12 12s-6 12-12 12c-7 0-12-5-12-12s5-12 12-12zm-26-38v-55c-5 0-12-2-12 6 3 0 5 2 5 6v32c0 3-2 6-5 6 1 6 8 5 12 5zm150-65h-60v78h60c7 0 12-5 12-12v-54c0-6-5-12-12-12zm-2 103c-7 0-12 5-12 12s5 12 12 12 12-5 12-12-5-12-12-12zm25-38v-55c5 0 13-2 13 6-3 0-6 2-6 6v32c0 3 3 6 6 6-1 6-8 5-13 5z" id="svg_2"/><path class="fil0" d="M75.714 74.286c5 0 10 5 10 10 0 6-5 10-10 10-6 0-10-4-10-10 0-5 4-10 10-10z" id="svg_3"/></g></g></svg>