<svg version="1" xmlns="http://www.w3.org/2000/svg" width="461.333" height="461.333" viewBox="0 0 346.000000 346.000000"><path d="M148.4 1.5c-26.1 3.9-54 14.9-75.1 29.8-17.4 12.3-38 34.4-48.5 52.2-37.1 62.3-32.4 139.4 11.7 196 7.9 10.1 23.7 25.5 33.5 32.7 30.9 22.5 65.3 33.8 103 33.8 47.4 0 90.5-18.2 123.6-52.2C329 260.6 346 219.2 346 173c0-45.9-17-87.5-48.9-120.4C269.4 24.2 235.8 7 196.7 1.5c-12.4-1.8-36-1.8-48.3 0zm104.2 63c3 1.9 6 4.9 7.9 7.9 2.9 4.8 3 5.3 3.3 19.8l.3 14.8h4.5c8.3 0 15.4 4.7 15.4 10.3 0 .7 1.7 2.5 3.8 3.8l3.7 2.4.3 18.5c.1 10.2 0 19.5-.3 20.8-.3 1.4-1.9 2.9-4 3.8-2.4 1-3.5 2.1-3.5 3.5 0 4.8-8.6 9.9-16.7 9.9H264v78h-11v7.5c0 9.7-1.5 12.8-7.4 15-6.2 2.4-12.9 1.3-16.8-2.5-2.6-2.7-2.8-3.3-2.8-11.4V258H119v8.4c0 6.8-.4 8.8-2 10.9-4.2 5.3-15.2 6-20.8 1.2-2.5-2.2-2.7-3-3-11.4l-.4-9.1H81v-78h-3.2c-8.2 0-16.8-5.1-16.8-9.9 0-1.2-1.1-2.6-2.9-3.5-1.6-.9-3.1-2.3-3.5-3.1-.3-.9-.6-10.1-.6-20.5v-18.9l2.8-2.1c1.5-1.2 3.6-4 4.7-6.3 2.8-5.8 6.3-8 13.5-8.5l6-.4V93.1c0-11 .4-14.4 1.9-17.6 2.1-4.8 9.7-11.8 14.3-13.3 2.2-.7 27.1-1 76.9-.9l73.6.2 4.9 3z"/><path d="M116.5 72.5c-3.4 3.3-3.4 8.7 0 12l2.4 2.5h108.2l2.4-2.5c1.7-1.6 2.5-3.5 2.5-6s-.8-4.4-2.5-6l-2.4-2.5H118.9l-2.4 2.5zM98.9 105.5c-1.4.8-3.5 2.7-4.5 4.2-1.8 2.6-1.9 5.1-1.9 35.3 0 30.3.1 32.7 1.9 35.3 2.6 3.9 6.6 5.7 12.4 5.7h4.9l.6-4.5c2.3-16.2 18.1-24.5 30.8-16.1 4.7 3.2 8.9 11 8.9 16.8v3.8h17v-82h-33.7c-27.2.1-34.3.4-36.4 1.5zm41.1 36.7c5.5 5.5 3.2 14.3-4.4 16.8-4.5 1.5-8.1.4-11.1-3.2-2.9-3.5-3.2-7-.7-11.8 3.1-6.3 10.9-7.2 16.2-1.8zM176 145v41h33.8c31.6 0 33.9-.1 36.9-2 5.7-3.4 5.8-4 6.1-34.5.4-34.6.1-37.8-4.3-42.2l-3.3-3.3H176v41zM69.6 115.6c-2.3 2.2-2 3.9.9 5.8L73 123v40.9l-2.6 2c-2.6 2.1-2.6 2.2-.9 4.1 1.3 1.5 3.1 2 6.7 2H81v-58h-4.9c-3.2 0-5.5.6-6.5 1.6zM264 143v29h5.3c4 0 5.8-.5 7-1.8 2.1-2.2 2.1-3.2.4-3.2-.8 0-2.1-.8-3-1.8-1.5-1.6-1.7-4.6-1.7-21.1 0-19.3.6-23.1 3.6-23.1 2.3 0 2.8-2.9.9-5-1.4-1.5-3.1-2-7.2-2H264v29zM141.9 213.2l-4.4 3.3 17.7.3c9.8.1 25.8.1 35.5 0l17.8-.3-4.4-3.3-4.4-3.2h-53.4l-4.4 3.2zM101.3 215c-4.1 2.5-5.3 4.8-5.3 10.7 0 5.5 1.7 8.6 6 10.8 6 3.1 13.5 1 17-4.8 6.8-11-6.5-23.6-17.7-16.7zM232 214.3c-3.4 1.7-7 7.4-7 10.9 0 4.3 2.6 9.1 5.9 11.1 5.5 3.2 14 1.5 17.5-3.5 2.1-3 2.1-11.2 0-14.4-3.3-4.9-10.9-6.9-16.4-4.1zM137.2 222.2c-1.6 1.6-1.5 4.3.2 5.7.9.8 11.3 1.1 36.1.9 31.9-.3 34.9-.4 35.9-2.1.8-1.2.8-2.2 0-3.5-1-1.6-4-1.7-36-2-26.4-.2-35.3.1-36.2 1zM138 234.5c0 .2 1.7 1.6 3.7 3l3.8 2.5h55l3.8-2.5c2-1.4 3.7-2.8 3.7-3 0-.3-15.7-.5-35-.5-19.2 0-35 .2-35 .5z"/></svg>