<svg xmlns="http://www.w3.org/2000/svg" width="90" height="54"><rect width="100%" height="100%" fill="none"/><g class="currentLayer"><title>Layer 1</title><path style="text-indent:0;text-align:start;line-height:normal;text-transform:none;block-progression:tb;-inkscape-font-specification:Sans" d="M7 0C3.174 0 0 3.174 0 7v30c0 3.618 2.83 6.65 6.375 6.97C7.728 49.697 12.875 54 19 54c6.114 0 11.26-4.286 12.625-10H51a3 3 0 1 0 0-6H31.625C30.26 32.286 25.115 28 19 28c-6.058 0-11.173 4.208-12.594 9.844C6.156 37.674 6 37.368 6 37V7c0-.606.394-1 1-1h76c.606 0 1 .394 1 1v2h-8a3 3 0 0 0-.313 0A3 3 0 0 0 73 12v10a3 3 0 0 0 3 3h8v12c0 .368-.157.673-.406.844C82.174 32.208 77.058 28 71 28c-7.144 0-13 5.856-13 13s5.856 13 13 13c6.125 0 11.272-4.302 12.625-10.03C87.17 43.65 90 40.617 90 37V7c0-3.826-3.174-7-7-7H7zm4.688 9A3 3 0 0 0 9 12v10a3 3 0 0 0 3 3h10a3 3 0 0 0 3-3V12a3 3 0 0 0-3-3H12a3 3 0 0 0-.313 0zm19 0A3 3 0 0 0 28 12v10a3 3 0 0 0 3 3h10a3 3 0 0 0 3-3V12a3 3 0 0 0-3-3H31a3 3 0 0 0-.313 0zm19 0A3 3 0 0 0 47 12v10a3 3 0 0 0 3 3h10a3 3 0 0 0 3-3V12a3 3 0 0 0-3-3H50a3 3 0 0 0-.313 0zM15 15h4v4h-4v-4zm19 0h4v4h-4v-4zm19 0h4v4h-4v-4zm26 0h5v4h-5v-4zM19 34c3.902 0 7 3.1 7 7 0 3.902-3.098 7-7 7s-7-3.098-7-7c0-3.9 3.098-7 7-7zm52 0c3.902 0 7 3.1 7 7 0 3.902-3.098 7-7 7s-7-3.098-7-7c0-3.9 3.098-7 7-7zm-52 3c-2.21 0-4 1.79-4 4s1.79 4 4 4 4-1.79 4-4-1.79-4-4-4zm52 0c-2.21 0-4 1.79-4 4s1.79 4 4 4 4-1.79 4-4-1.79-4-4-4z" color="#000" overflow="visible" font-family="Sans"/></g></svg>