<svg width="642" height="384" xmlns="http://www.w3.org/2000/svg"><title>background</title><path fill="none" d="M-1-1h644v386H-1z"/><g><title>Layer 1</title><path d="M312.248 62.45H90.08c-8.585 0-16.098 7.513-16.098 16.1V184.8c0 8.586 7.513 16.1 16.1 16.1h222.166c8.586 0 16.1-7.514 16.1-16.1V78.55c0-8.587-7.514-16.1-16.1-16.1zm-127.72 106.253H106.18V94.648h78.35v74.055zm111.62 0H217.8V94.648h78.35v74.055zM497.925.2H17.1C8.512.2 1 7.713 1 16.3v297.295c0 8.586 7.513 16.1 16.1 16.1h33.27c8.587 31.124 37.565 53.662 70.836 53.662s62.25-22.538 70.836-53.663h12.88c8.585 31.125 37.564 53.663 70.835 53.663s62.25-22.538 70.836-53.663h92.3c8.587 31.125 37.565 53.663 70.837 53.663s62.25-22.538 70.835-53.663h47.224c8.585 0 16.098-7.513 16.098-16.1V147.24C644.962 65.668 578.418.2 497.924.2zM121.206 350.086c-22.538 0-41.857-18.246-41.857-41.858s18.244-41.857 41.856-41.857 41.858 18.246 41.858 41.858-18.246 41.858-41.858 41.858zm154.55 0c-22.538 0-41.857-18.246-41.857-41.858s18.245-41.857 41.857-41.857 41.857 18.246 41.857 41.858-19.318 41.858-41.857 41.858zm235.047 0c-22.54 0-41.858-18.246-41.858-41.858s18.246-41.857 41.858-41.857 41.857 18.246 41.857 41.858-19.318 41.858-41.857 41.858zm101.96-53.664h-28.978c-5.366-35.418-36.49-62.25-72.982-62.25s-67.616 26.832-72.982 62.25h-89.08c-5.367-35.418-36.492-62.25-72.983-62.25s-67.616 26.832-72.982 62.25h-8.587c-5.366-35.418-36.49-62.25-72.982-62.25s-67.616 26.832-72.982 62.25H33.198V32.398h464.726c63.323 0 114.84 51.517 114.84 114.84v149.184zm-154.55-127.72h133.085v32.2H442.114c-8.586 0-16.1-7.514-16.1-16.1V78.55c0-8.587 7.514-16.1 16.1-16.1h96.594c15.026 7.513 27.905 18.245 37.564 32.198h-118.06v74.055z"/></g></svg>