<svg xmlns="http://www.w3.org/2000/svg" width="90" height="49"><rect width="100%" height="100%" fill="none"/><g class="currentLayer"><title>Layer 1</title><path d="M9.162 30.944h-6.64V5.848h6.64v25.096zm-4.202-2.44h1.763V8.288H4.96v20.216z"/><path d="M7.942 19.734H86.07v2.44H7.942zM87.29 31.4h-5.588c-2.087 0-3.778-1.694-3.778-3.778 0-2.082 1.69-3.776 3.778-3.776h5.588V31.4zm-5.588-5.116c-.738 0-1.34.6-1.34 1.337 0 .74.602 1.34 1.34 1.34h3.15v-2.676H81.7z"/><path d="M59.963 1.22h2.44v33.108h-2.44zM64.475 24.34h6.136v2.438h-6.135z"/><g><path d="M65.685 40.592H27.347l-.024-1.2c-.023-1.568-.59-3.046-1.64-4.272l-1.714-2.01h45.093l-1.715 2.01c-1.05 1.225-1.615 2.7-1.64 4.273l-.023 1.2zm-36.023-2.44h33.702c.14-.907.405-1.778.806-2.603H28.862c.396.823.667 1.694.8 2.603zM13.693 40.592H3.74c-2.063 0-3.74-1.68-3.74-3.742 0-2.063 1.677-3.74 3.74-3.74h13.34l-1.73 2.013c-1.042 1.215-1.61 2.692-1.638 4.27l-.02 1.2zM3.74 35.55c-.714 0-1.3.582-1.3 1.3 0 .72.586 1.303 1.3 1.303h7.632c.134-.908.405-1.782.8-2.604H3.74zM86.618 40.592h-7.28l-.022-1.2c-.03-1.577-.596-3.055-1.635-4.27l-1.728-2.013H86.62c2.062 0 3.74 1.676 3.74 3.74 0 2.062-1.678 3.742-3.742 3.742zm-4.963-2.44h4.964c.714 0 1.3-.583 1.3-1.302 0-.718-.586-1.3-1.3-1.3h-5.766c.395.82.667 1.694.8 2.603z"/></g><path d="M72.512 48.774c-5.107 0-9.257-4.154-9.257-9.26s4.15-9.256 9.257-9.256c5.103 0 9.257 4.152 9.257 9.257s-4.155 9.26-9.258 9.26zm0-16.076c-3.76 0-6.817 3.06-6.817 6.817 0 3.76 3.06 6.82 6.817 6.82s6.817-3.06 6.817-6.82c0-3.76-3.06-6.817-6.818-6.817zM20.515 48.774c-5.103 0-9.252-4.154-9.252-9.26s4.15-9.256 9.252-9.256c5.107 0 9.262 4.152 9.262 9.257s-4.155 9.26-9.262 9.26zm0-16.076c-3.76 0-6.813 3.06-6.813 6.817 0 3.76 3.054 6.82 6.813 6.82 3.764 0 6.823-3.06 6.823-6.82 0-3.76-3.06-6.817-6.823-6.817z"/><path d="M87.29 35.55h-9.252l-.362-.43c-1.31-1.54-3.19-2.423-5.164-2.423s-3.854.883-5.164 2.422l-.367.43H26.05l-.366-.43c-1.315-1.54-3.197-2.423-5.17-2.423-1.966 0-3.848.883-5.16 2.422l-.366.43H2.52V0h74.562c.104 0 10.21.13 10.21 11.525V35.55zm-8.146-2.44h5.708V11.525c0-8.92-7.456-9.083-7.775-9.085H4.96v30.67h8.923c1.753-1.82 4.136-2.852 6.632-2.852 2.497 0 4.883 1.03 6.637 2.852h38.724c1.753-1.82 4.14-2.852 6.637-2.852s4.883 1.03 6.63 2.852zM20.52 43.252c-2.063 0-3.74-1.677-3.74-3.737 0-2.063 1.677-3.742 3.74-3.742s3.74 1.68 3.74 3.742c0 2.06-1.677 3.737-3.74 3.737zm0-5.04c-.72 0-1.3.583-1.3 1.303 0 .717.58 1.298 1.3 1.298s1.3-.58 1.3-1.298c0-.72-.58-1.304-1.3-1.304zM72.512 43.252c-2.063 0-3.74-1.677-3.74-3.737 0-2.063 1.678-3.742 3.74-3.742s3.74 1.68 3.74 3.742c0 2.06-1.677 3.737-3.74 3.737zm0-5.04c-.72 0-1.3.583-1.3 1.303 0 .717.58 1.298 1.3 1.298s1.3-.58 1.3-1.298c0-.72-.58-1.304-1.3-1.304z"/><path d="M87.29 17.35H65.2V5.15h20.643l.324.713c.743 1.63 1.124 3.535 1.124 5.663v5.823zm-19.652-2.44h17.214v-3.385c0-1.487-.2-2.783-.615-3.936h-16.6v7.32zM56.814 17.418H44.546V5.15h12.268V17.42zm-9.828-2.44h7.39V7.59h-7.39v7.39zM41.144 17.418H28.88V5.15h12.264V17.42zm-9.823-2.44h7.385V7.59H31.32v7.39zM25.47 17.418H13.207V5.15H25.47V17.42zm-9.824-2.44h7.385V7.59h-7.384v7.39z"/></g></svg>